<svg xmlns="http://www.w3.org/2000/svg" width="1102" height="990" viewBox="0 0 1102 990">
  <defs>
    <style>
      .cls-1 {
        fill: #143a72;
      }

      .cls-1, .cls-2, .cls-3 {
        fill-rule: evenodd;
      }

      .cls-2 {
        fill: #f8f9fb;
      }

      .cls-3 {
        fill: #d92136;
      }
    </style>
  </defs>
  <path id="Color_Fill_1" data-name="Color Fill 1" class="cls-1" d="M455,990H98c-19.174-7.452-85.244-62.557-98-79V61L73,0H454L625,1,463,53q-1,101.49-2,203c-44.2-32.414-76.269-70.25-136-89-39.22-12.312-90.495-10.806-128,1C90.583,201.5,33.271,262.366,8,377,0.032,413.142-2.736,469.714,4,510c5.594,33.452,2.822,64.374,11,95,22.442,84.046,74.373,151.105,142,191,48.939,28.87,135.765,43.158,201,18,39.011-15.045,68.755-35.156,99-58Q456,872.988,455,990ZM627,0h394c13.92,5.127,71.46,56.314,81,69V554l-82-3c-20.747,43.9-50.8,75.693-100,91-81.988,25.507-174.864-9.78-233-35-17.887-7.76-42.846-14.908-56-28V544l49-54c38.069-47.247,92.884-93.618,152-119,20.274-8.7,52.336-19.789,84-14,61.3,11.207,70.47,37.552,108,68h75v-1c-8.99-30.393-13.08-60.231-24-88-32.64-82.968-85.915-139.935-175-167-28.8-8.749-66.824-16.034-103-9l-58,14c-43.308,16.836-74.767,40.821-110,64Q628,119.013,627,0ZM256,334c63.846-1.283,174.692,24.974,204,55q-0.5,34-1,68c-7.229,19.593-38.55,46.327-52,63-52.221,64.733-177.838,156.7-285,81-82.53-58.3-68.009-178.584,10-230,22.837-15.052,52.671-25.1,83-32Zm845,226q0.495,171.982,1,344c-29.53,22.315-54.93,48.994-86,71q-10,7.5-20,15l-538-1,176-59q-0.5-117.489-1-235v2l47,50c33.95,27.294,69.325,53.353,116,68,152.757,47.936,243.41-65.916,283-167C1088.72,623.19,1100.09,591.6,1101,560Z"/>
  <path id="white" class="cls-2" d="M251,157c85.59-1.708,174.5,52.634,210,100q-0.5,65.493-1,131c-99.656-48.309-234.294-85.706-338-10-88.935,64.923-65.937,199.62,30,239,82.906,34.031,161.438-12.077,208-49,82.751-65.62,131.056-167.323,195-252A445.706,445.706,0,0,1,685,200c75.656-44.808,176.521-56.829,262-13,36.877,18.908,63.83,42.521,87,75,32.23,45.179,51.21,98.118,65,163h-76c-30.273-44.08-95.473-85.792-172-61-40.05,12.975-72.838,36.649-103,60-70.215,54.359-129.433,130.983-183,202-42.4,56.217-79.687,113.555-139,153-41.938,27.89-108.974,61.23-184,47C120.514,802.958,46.174,717.307,15,605c-8.341-30.048-5.676-60.974-11-94-5.377-33.356-4.943-82.592,1-115,6.495-35.418,13.686-68.39,27-97,29.639-63.688,83-102.336,151-128C203.083,163.42,230.953,164.832,251,157Zm851,397c-0.28,25.044-8.67,49.605-15,70-30.43,98.046-82.9,174.868-188,198-95.866,21.1-167.6-35.166-216-74-11.991-9.621-46.343-39.111-51-53V580c66.549,38.707,204.47,98.036,305,56a154.831,154.831,0,0,0,67-55q8.5-15,17-30Z"/>
  <path id="red" class="cls-3" d="M625,0c4.875,5.625,2,52,2,64q1,86.991,2,174c-49.3,36.853-89.8,92.324-123,145l-47,71q2-200.48,4-401Zm5,545q2,192.48,4,385L455,990q1-116.988,2-234c33.71-25.447,57.546-63.2,83-97Z"/>
</svg>
